<svg width="44" height="40" viewBox="0 0 44 40" fill="none" xmlns="http://www.w3.org/2000/svg">
<path fill-rule="evenodd" clip-rule="evenodd" d="M37.6212 14.7094C38.1976 16.4094 38.4894 18.1871 38.4894 20C38.4894 29.0918 31.0929 36.4894 22 36.4894C12.9082 36.4894 5.51059 29.0918 5.51059 20C5.51059 10.9071 12.9059 3.5106 22 3.5106C23.8129 3.5106 25.5918 3.80236 27.2906 4.37883V0.708244C25.5667 0.236557 23.7873 -0.00164743 22 8.57512e-06C10.9718 8.57512e-06 2 8.97177 2 20C2 31.0282 10.9718 40 22 40C33.0282 40 42 31.0282 42 20C42 18.2 41.7612 16.4259 41.2906 14.7094H37.6212ZM14.8599 26.6669V16.0528H12.3705V13.3328H18.2964V26.6669H14.8599ZM30.9128 17.0281C30.9128 18.2281 30.274 19.2892 29.2105 19.8786C30.6999 20.5081 31.6293 21.8245 31.6293 23.3575C31.6293 25.8351 29.4611 27.4069 26.074 27.4069C22.6858 27.4069 20.5187 25.8539 20.5187 23.4175C20.5187 21.8445 21.5246 20.5081 23.0928 19.8786C21.9517 19.2304 21.2152 18.1292 21.2152 16.9304C21.2152 14.7281 23.1128 13.3328 26.0552 13.3328C29.0352 13.3328 30.914 14.7681 30.914 17.0281H30.9128ZM23.7705 23.0634C23.7705 24.2234 24.5834 24.8716 26.074 24.8716C27.5646 24.8716 28.3964 24.2434 28.3964 23.0634C28.3964 21.9222 27.5646 21.2751 26.074 21.2751C24.5834 21.2751 23.7705 21.9222 23.7705 23.0634ZM24.1187 17.2245C24.1187 18.2081 24.8152 18.7586 26.074 18.7586C27.3328 18.7586 28.0293 18.2081 28.0293 17.2245C28.0293 16.2034 27.3317 15.6328 26.074 15.6328C24.8152 15.6328 24.1187 16.2034 24.1187 17.2245ZM36.6964 1.48218V5.29512L40.5188 5.2963V8.03747H36.6964V11.8528H33.9482V8.03865H30.1482V5.2963H33.9482V1.48218H36.6964Z" fill="#A1BADC"/>
</svg>
