<svg width="75" height="40" viewBox="0 0 75 40" fill="none" xmlns="http://www.w3.org/2000/svg">
<path d="M3 0H7.22917C9.125 0 9.78125 0.0727273 10.2917 0.290909C11.3125 0.8 11.9688 1.74545 11.9688 2.90909C11.9688 4 11.6042 4.58182 10.5104 5.09091C11.6771 5.45455 12.4792 6.54545 12.3333 7.78182C12.3333 9.6 10.875 10.8364 8.76042 10.8364H3V9.09091H3.80208V1.74545H3V0ZM6.13542 1.74545V4.36364H8.32292C9.125 4.43636 9.78125 3.85455 9.85417 3.12727V2.98182C9.85417 2.25455 9.125 1.74545 8.17708 1.74545H6.13542ZM6.13542 6.10909V9.09091H8.46875C9.34375 9.16364 10.1458 8.50909 10.1458 7.63636V7.56364C10.1458 6.61818 9.34375 6.03636 8.17708 6.03636L6.13542 6.10909ZM21.5208 8.14545C21.1562 9.96364 19.625 11.0545 17.6563 11.0545C15.3229 11.0545 13.6458 9.23636 13.6458 6.69091C13.6458 4.14545 15.3229 2.32727 17.6563 2.32727C18.8958 2.32727 20.1354 2.90909 20.8646 4C21.4479 4.94545 21.7396 5.96364 21.6667 7.05455H15.6875C15.9062 9.23636 17.2917 9.30909 17.6563 9.30909C18.4583 9.38182 19.1146 8.8 19.3333 8.07273L21.5208 8.14545ZM19.4062 5.74545C19.4062 4.8 18.6042 4.07273 17.7292 4.07273H17.6563C16.7083 4.07273 15.9792 4.8 15.7604 5.67273L19.4062 5.74545ZM8.25 19.1273H12.0417V24.5091H10.8021V22.8364C10.5833 23.2 10.2917 23.5636 10 23.8545C9.27083 24.4364 8.39583 24.8 7.52083 24.8C4.96875 24.8 3 22.3273 3 19.1273C3 15.9273 4.96875 13.3818 7.44792 13.3818C8.83333 13.3091 10.0729 14.1091 10.7292 15.2727V13.6H11.8958V17.0909H10.6562C10.5104 16.5818 10.2917 16.1455 10.0729 15.7818C9.48958 15.0545 8.61458 14.6182 7.73958 14.5455C6.42708 14.5455 4.38542 15.7091 4.38542 19.0545C4.38542 21.6727 5.84375 23.6364 7.73958 23.6364C9.19792 23.5636 10.4375 22.4727 10.7292 21.0182C10.8021 20.7273 10.8021 20.4364 10.8021 20.1455H8.17708L8.25 19.1273ZM21.375 24.5818H18.9688V23.1273C18.3854 24.1455 17.2917 24.8 16.125 24.8C14.7396 24.9455 13.5 23.7818 13.4271 22.4727V22.3273C13.4271 20.7273 14.8125 20 18.0938 19.6364L18.8958 19.5636V18.7636C18.8958 17.8182 18.1667 17.2364 17 17.2364C15.8333 17.2364 15.25 17.6 15.0312 18.6909H13.7917C13.9375 18.0364 14.2292 17.4545 14.7396 17.0182C15.3229 16.5091 16.1979 16.2909 16.9271 16.2909C18.6042 16.2909 20.0625 17.0909 20.0625 19.1273V23.7091H21.2292L21.375 24.5818ZM18.9688 20.2909L18.2396 20.3636C15.6875 20.7273 14.8854 21.1636 14.8854 22.1818C14.9583 23.1273 15.6875 23.7818 16.5625 23.7818C17.8021 23.7091 18.8229 22.8364 18.9688 21.6V20.2909ZM24.875 17.8182C25.2396 17.2364 25.9688 16.1455 27.5 16.1455C28.5938 16.1455 29.1771 16.7273 29.4688 17.8182C29.6875 17.4545 29.9063 17.0909 30.2708 16.8C30.7813 16.3636 31.3646 16.0727 32.0208 16.0727C33.2604 16.0727 33.9896 16.8727 33.9896 18.3273V23.5636H35.1562V24.5818H32.8229V18.8364C32.8229 17.6727 32.4583 17.1636 31.5833 17.1636C30.125 17.1636 29.3958 18.8364 29.3958 19.4909V23.6364H30.6354V24.6545H28.2292V18.6909C28.2292 17.6727 27.8646 17.2364 26.9896 17.2364C25.75 17.2364 24.8021 18.8364 24.8021 19.5636V23.7091H26.0417V24.7273H22.4688V23.7091H23.7083V17.3091H22.4688V16.2909H24.875V17.8182ZM36.3958 13.1636H38.7292V17.9636C39.0938 17.3818 39.9688 16.1455 41.4271 16.1455C43.3229 16.1455 44.7812 18.0364 44.7812 20.5091C44.7812 22.7636 43.25 24.6545 41.4271 24.6545C39.9688 24.6545 39.2396 23.6364 38.7292 22.9818V24.5091H36.3229V23.4909H37.4896V14.1818H36.3958V13.1636ZM38.7292 21.0182C38.7292 22.4 39.75 23.4909 41.1354 23.6364C42.5938 23.6364 43.4688 22.4 43.4688 20.3636C43.4688 18.3273 42.5208 17.0909 41.1354 17.0909C39.8958 17.0909 38.7292 18.4 38.7292 19.6364V21.0182ZM45.5104 13.1636H47.9167V23.5636H49.0104V24.5818H45.4375V23.5636H46.6771V14.1091H45.5104V13.1636ZM57.1042 22.2545C56.9583 22.7636 56.7396 23.1273 56.4479 23.4909C56.1312 23.8799 55.7308 24.193 55.2765 24.407C54.8221 24.621 54.3254 24.7305 53.8229 24.7273C51.5625 24.7273 49.9583 22.9818 49.9583 20.4364C49.9583 18.0364 51.5625 16.1455 53.6042 16.1455C55.6458 16.1455 57.3229 17.7455 57.3229 20.6545H51.2708C51.4167 21.8909 51.6354 22.5455 52.2188 23.1273C52.6562 23.4909 53.2396 23.7091 53.75 23.7091C54.6979 23.7091 55.2813 23.2727 55.7188 22.2545H57.1042ZM55.8646 19.7091C55.8646 18.9091 55.5729 18.2545 55.0625 17.6C54.6979 17.2364 54.1875 17.0182 53.6771 17.0909C52.6562 17.1636 51.7083 17.8909 51.4896 18.8364C51.4167 19.1273 51.3438 19.4182 51.3438 19.6364L55.8646 19.7091ZM6.79167 27.2727H9.41667L12.4792 36.3636H13.2813V38.1091H10.8021L10.0729 35.7818H6.28125L5.55208 38.1091H3V36.3636H3.80208L6.79167 27.2727ZM8.17708 29.3091L6.71875 34.1818H9.5625L8.17708 29.3091ZM13.2813 29.8909H16.6354V31.4909H15.8333L17 36.3636L18.3854 29.8909H20.5729L21.9583 36.2909L23.0521 31.4909H22.1771V29.8909H25.5312V31.4909H24.8021L23.0521 38.1091H20.8646L19.4792 32.3636L18.1667 38.1091H15.9792L13.9375 31.4909H13.2083L13.2813 29.8909ZM33.2604 36.5818H33.9896V38.1818H31.3646V37.1636C30.7813 37.9636 29.8333 38.3273 28.8125 38.3273C27.1354 38.3273 25.8958 37.2364 25.8958 35.7091C25.8958 33.3091 28.6667 33.0182 31.2917 32.8C31.2917 31.5636 30.8542 31.1273 29.8333 31.1273C28.8125 31.1273 28.375 31.6364 28.375 32.3636V32.4364H26.3333C26.4792 30.7636 27.7917 29.7455 29.7604 29.7455C32.0938 29.7455 33.3333 30.7636 33.3333 32.6545L33.2604 36.5818ZM31.2917 34.2545C29.3229 34.4 28.0833 34.6182 28.0833 35.7091C28.0833 36.3636 28.6667 36.8 29.4688 36.8C30.4896 36.8 31.2917 36 31.3646 35.0545V34.9818L31.2917 34.2545ZM37.9271 31.2C38.5104 30.1818 39.0938 29.7455 40.0417 29.7455C40.4062 29.7455 40.625 29.8182 40.9896 29.8909V31.7818C40.625 31.7091 40.3333 31.6364 39.9688 31.6364C38.9479 31.5636 38 32.3636 38 33.3091V36.5091H39.0208V38.1091H35.0833V36.5091H35.8854V31.4182H35.0833V29.8182H37.9271V31.2ZM49.3021 35.4182C48.9375 37.2364 47.4062 38.3273 45.4375 38.3273C43.1042 38.3273 41.4271 36.5091 41.4271 33.9636C41.4271 31.4182 43.1042 29.6 45.4375 29.6C46.6771 29.6 47.9167 30.1818 48.6458 31.2727C49.2292 32.2182 49.5208 33.2364 49.4479 34.3273H43.4688C43.6875 36.5091 45.0729 36.5818 45.4375 36.5818C46.2396 36.6545 46.8958 36.0727 47.1146 35.3455L49.3021 35.4182ZM47.1875 33.0182C47.1875 32.0727 46.3854 31.3455 45.5104 31.3455H45.4375C44.4896 31.3455 43.7604 32.0727 43.5417 32.9455L47.1875 33.0182ZM70.5938 22.4C70.8854 22.4 71.1042 22.4727 71.25 22.6182C71.3958 22.7636 71.4688 22.9091 71.4688 23.1273C71.4688 23.2727 71.3958 23.4182 71.3229 23.5636C71.25 23.7091 71.1042 23.7818 70.9583 23.8545C71.0312 23.8545 71.1042 23.9273 71.1771 23.9273L71.3229 24.0727C71.3958 24.1455 71.3958 24.1455 71.3958 24.2182V24.8727C71.3958 24.9455 71.3958 25.0182 71.4688 25.0909C71.4688 25.1636 71.5417 25.2364 71.5417 25.2364H71.1042C71.1042 25.2364 71.0313 25.1636 71.0313 25.0909V24.9455V24.7273V24.5091C71.0313 24.4364 71.0312 24.3636 70.9583 24.2909C70.9583 24.2182 70.8854 24.1455 70.8854 24.1455C70.8854 24.0727 70.8125 24.0727 70.7396 24C70.6667 24 70.5938 23.9273 70.5208 23.9273H69.6458V25.0909H69.2812V22.3273L70.5938 22.4ZM70.6667 23.6364C70.7396 23.6364 70.8125 23.5636 70.8854 23.5636L71.0313 23.4182C71.0313 23.3455 71.1042 23.2727 71.1042 23.2C71.1042 23.0545 71.0312 22.9091 70.9583 22.8364C70.8854 22.7636 70.7396 22.6909 70.5938 22.6909H69.6458V23.6364H70.4479C70.4479 23.7091 70.5938 23.7091 70.6667 23.6364ZM70.3021 26.6182C68.8438 26.6182 67.6042 25.3818 67.6042 23.9273C67.6042 22.4727 68.8438 21.2364 70.3021 21.2364C71.7604 21.2364 73 22.4727 73 23.9273C73 25.3818 71.7604 26.6182 70.3021 26.6182ZM70.3021 21.6727C69.0625 21.6727 68.0417 22.6909 68.0417 23.9273C68.0417 25.1636 69.0625 26.1818 70.3021 26.1818C71.5417 26.1818 72.5625 25.1636 72.5625 23.9273C72.5625 22.6909 71.5417 21.6727 70.3021 21.6727ZM50.4688 37.0909H51.4896V38.1091H50.4688V37.0909ZM52.4375 35.1273C52.4375 33.3091 53.5312 32.0727 55.2083 32.0727C56.8125 32.0727 57.9792 33.3818 57.9792 35.1273C57.9792 36.9455 56.8125 38.2545 55.2083 38.2545C53.5312 38.2545 52.4375 36.9455 52.4375 35.1273ZM55.1354 37.5273C56.3021 37.5273 56.9583 36.6545 56.9583 35.1273C56.9583 33.7455 56.2292 32.8 55.1354 32.8C54.0417 32.8 53.3854 33.6727 53.3854 35.1273C53.3854 36.6545 54.0417 37.5273 55.1354 37.5273ZM60.2396 33.5273C60.5312 32.9455 60.6771 32.7273 60.9688 32.4364C61.2604 32.1455 61.6979 32 62.0625 32C62.2083 32 62.4271 32 62.7188 32.0727V32.9455C62.4271 32.8727 62.2083 32.8727 62.0625 32.8727C60.4583 32.8727 60.2396 34.5455 60.2396 34.6182V37.3818H61.2604V38.1091H58.5625V37.3818H59.4375V32.8H58.5625V32.0727H60.3125C60.2396 32.1455 60.2396 33.5273 60.2396 33.5273ZM67.3854 36.6545C66.875 37.3818 66.2188 37.6727 65.5625 37.6727C64.1042 37.6727 63.1562 36.5091 63.1562 34.8364C63.1562 33.2364 64.1042 32.0727 65.4896 32.0727C66.5833 32.0727 67.0938 32.8 67.3854 33.2364V32.1455H69.0625V32.8727H68.2604V37.7455C68.2604 39.2 67.3125 40 65.7083 40C64.6875 40 63.8854 39.5636 63.4479 38.9091C63.375 38.7636 63.3021 38.6182 63.2292 38.3273H64.1771C64.5417 39.0545 64.9792 39.3455 65.7812 39.3455C66.8021 39.3455 67.3854 38.8364 67.3854 37.9636V36.6545ZM67.3854 34.3273C67.3854 33.6727 66.5833 32.7273 65.7083 32.7273C64.7604 32.7273 64.1042 33.5273 64.1042 34.8364C64.1042 36.1455 64.6875 36.9455 65.7083 36.9455C66.5833 36.9455 67.3854 36.0727 67.3854 35.4182V34.3273Z" fill="#A1BADC"/>
</svg>
