<svg width="18" height="18" viewBox="0 0 18 18" fill="none" xmlns="http://www.w3.org/2000/svg">
<path opacity="0.6" fill-rule="evenodd" clip-rule="evenodd" d="M14.3454 4.22032C14.5016 4.06411 14.5016 3.81084 14.3454 3.65463C14.1892 3.49842 13.936 3.49842 13.7798 3.65463L9.0001 8.43429L4.22044 3.65463C4.06423 3.49842 3.81096 3.49842 3.65475 3.65463C3.49855 3.81084 3.49855 4.06411 3.65475 4.22032L8.43441 8.99998L3.65475 13.7796C3.49855 13.9358 3.49855 14.1891 3.65475 14.3453C3.81096 14.5015 4.06423 14.5015 4.22044 14.3453L9.0001 9.56566L13.7798 14.3453C13.936 14.5015 14.1892 14.5015 14.3454 14.3453C14.5016 14.1891 14.5016 13.9358 14.3454 13.7796L9.56578 8.99998L14.3454 4.22032Z" fill="#A1BADC"/>
</svg>
