<svg width="18" height="18" viewBox="0 0 18 18" fill="none" xmlns="http://www.w3.org/2000/svg">
<path d="M9.00011 5.0625V6.1875" stroke="white" stroke-width="0.8" stroke-linecap="round" stroke-linejoin="round"/>
<path d="M9.00011 11.8125V12.9375" stroke="white" stroke-width="0.8" stroke-linecap="round" stroke-linejoin="round"/>
<path d="M9.00003 15.75C12.728 15.75 15.75 12.7279 15.75 9C15.75 5.27208 12.728 2.25 9.00003 2.25C5.27211 2.25 2.25003 5.27208 2.25003 9C2.25003 12.7279 5.27211 15.75 9.00003 15.75Z" stroke="white" stroke-width="0.8" stroke-linecap="round" stroke-linejoin="round"/>
<path d="M7.31258 11.8125H9.84383C10.2168 11.8125 10.5745 11.6643 10.8382 11.4006C11.1019 11.1369 11.2501 10.7792 11.2501 10.4062C11.2501 10.0333 11.1019 9.6756 10.8382 9.41188C10.5745 9.14816 10.2168 9 9.84383 9H8.15633C7.78337 9 7.42569 8.85184 7.16197 8.58812C6.89824 8.3244 6.75008 7.96671 6.75008 7.59375C6.75008 7.22079 6.89824 6.8631 7.16197 6.59938C7.42569 6.33566 7.78337 6.1875 8.15633 6.1875H10.6876" stroke="white" stroke-width="0.8" stroke-linecap="round" stroke-linejoin="round"/>
</svg>
