<svg width="142" height="40" viewBox="0 0 142 40" fill="none" xmlns="http://www.w3.org/2000/svg">
<path fill-rule="evenodd" clip-rule="evenodd" d="M2.49314 0H18.7911C20.8019 0 22.7929 0.396049 24.6506 1.16553C26.5083 1.93502 28.1963 3.06287 29.6181 4.48469C31.0399 5.90651 32.1678 7.59446 32.9373 9.45216C33.7068 11.3099 34.1028 13.3009 34.1028 15.3117V24.199C34.1032 28.259 32.4911 32.1529 29.621 35.0245C26.7509 37.8961 22.8578 39.5103 18.7979 39.5121H17.3117C15.3008 39.5121 13.3096 39.116 11.4518 38.3464C9.59406 37.5768 7.90605 36.4489 6.48421 35.0269C5.06237 33.6049 3.93455 31.9168 3.16515 30.059C2.39574 28.2011 1.99982 26.2099 2 24.199V0.493141C2.00036 0.362462 2.05243 0.237236 2.14483 0.144832C2.23724 0.0524268 2.36246 0.000356563 2.49314 0ZM18.3628 34.5726C24.9507 34.5726 29.1863 30.2194 29.1863 24.4544V18.411C29.1863 18.0179 28.9512 17.822 28.5594 17.822H18.9897C18.6371 17.822 18.402 18.0571 18.402 18.4502V22.4899C18.402 22.9209 18.6371 23.1168 18.9897 23.1168H23.378V24.0626C23.378 27.397 21.6527 28.9264 18.3588 28.9264C14.3583 28.9264 13.0247 26.5729 13.0247 23.3965V16.1007C13.0247 12.9243 14.3583 10.5708 18.3588 10.5708C20.9461 10.5708 22.3579 11.7435 23.0254 13.9052C23.1862 14.4146 23.4604 14.5713 23.9711 14.4146L28.2067 13.1594C28.6377 13.0027 28.8336 12.6893 28.6769 12.1394C27.5393 8.53201 24.6764 4.9233 18.3628 4.9233C10.559 4.9233 6.91114 9.55478 6.91114 15.9048V23.5911C6.91114 29.9451 10.5577 34.5726 18.3628 34.5726ZM53.4083 15.671C53.6758 15.5805 53.7974 15.3792 53.7001 15.0401C52.9962 12.8054 51.2223 10.5707 47.3123 10.5707C42.4795 10.5707 40.2218 13.4364 40.2218 17.3707V22.1319C40.2218 26.0662 42.4795 28.9318 47.3123 28.9318C51.3925 28.9318 54.0163 26.2351 54.0163 22.6655V18.9258C54.0163 18.6826 53.8703 18.561 53.6272 18.561H47.7014C47.6507 18.5587 47.6002 18.5675 47.5533 18.5866C47.5064 18.6057 47.4641 18.6347 47.4295 18.6717C47.3948 18.7086 47.3686 18.7526 47.3526 18.8007C47.3365 18.8488 47.3311 18.8997 47.3366 18.9501V21.4509C47.3366 21.7184 47.4825 21.84 47.7014 21.84H50.4197V22.4223C50.4197 24.4881 49.3524 25.4339 47.3123 25.4339C44.8357 25.4339 44.0102 23.9774 44.0102 22.0103V17.4923C44.0102 15.5251 44.8357 14.0687 47.3123 14.0687C48.916 14.0687 49.7969 14.7969 50.2022 16.1331C50.2995 16.4479 50.4697 16.5452 50.7859 16.4479L53.4083 15.671ZM67.0055 28.2752V19.5081C67.0055 16.4965 65.1113 14.8942 61.739 14.9077C58.5329 14.9077 56.7117 16.3155 56.3469 18.234C56.2982 18.4286 56.3198 18.5745 56.5901 18.6475L59.2611 19.323C59.5286 19.3919 59.6259 19.3433 59.7475 19.0528C60.0623 18.2989 60.4028 17.8138 61.5931 17.8138C62.7631 17.8138 63.4386 18.3232 63.4386 19.6351V20.6065C62.6285 20.5537 61.8156 20.5618 61.0067 20.6308C57.2669 20.8983 55.7375 22.3521 55.7375 24.784C55.7375 27.2848 57.3642 28.9129 59.8894 28.9129C60.6325 28.9232 61.3652 28.7372 62.0135 28.3738C62.6619 28.0104 63.2028 27.4824 63.5819 26.843V28.2752C63.5796 28.3257 63.5883 28.376 63.6074 28.4229C63.6264 28.4697 63.6553 28.5119 63.6921 28.5465C63.7289 28.5811 63.7728 28.6074 63.8206 28.6235C63.8685 28.6397 63.9193 28.6453 63.9696 28.64H66.642C66.6906 28.6427 66.7392 28.6352 66.7846 28.6178C66.8301 28.6004 66.8713 28.5736 66.9056 28.5392C66.94 28.5047 66.9666 28.4634 66.9838 28.4179C67.001 28.3724 67.0084 28.3237 67.0055 28.2752ZM63.4359 22.8331V24.099C62.9982 25.3366 62.0754 25.9932 60.8851 25.9851C59.8407 25.9851 59.2098 25.4731 59.2098 24.5273C59.2098 23.4883 59.938 23.0763 61.2985 22.906C62.0084 22.8319 62.7226 22.8075 63.4359 22.8331ZM79.9771 17.3261C79.4678 15.8899 78.3504 14.8942 76.6508 14.8942C74.9498 14.8942 73.7851 15.9426 72.9785 17.0559V15.5251C72.9791 15.4784 72.9698 15.432 72.9514 15.389C72.933 15.346 72.9059 15.3073 72.8717 15.2754C72.8375 15.2435 72.797 15.219 72.7528 15.2036C72.7086 15.1883 72.6617 15.1822 72.6151 15.186H69.7779C69.7312 15.1823 69.6842 15.1883 69.64 15.2036C69.5957 15.219 69.5552 15.2434 69.5209 15.2753C69.4866 15.3072 69.4593 15.3459 69.4407 15.3889C69.4221 15.4319 69.4127 15.4783 69.4131 15.5251V28.2752C69.408 28.3243 69.4139 28.374 69.4305 28.4206C69.447 28.4671 69.4737 28.5094 69.5087 28.5444C69.5436 28.5793 69.5859 28.606 69.6325 28.6226C69.679 28.6391 69.7287 28.6451 69.7779 28.64H72.7313C72.7804 28.6448 72.8299 28.6387 72.8763 28.6221C72.9227 28.6055 72.9648 28.5787 72.9996 28.5438C73.0344 28.5089 73.061 28.4667 73.0774 28.4202C73.0939 28.3738 73.0998 28.3242 73.0947 28.2752V20.3579C73.4352 19.1203 74.1634 18.2448 75.1835 18.2448C76.1292 18.2448 76.6697 18.9717 76.6697 20.1877V28.2752C76.6697 28.4941 76.767 28.64 76.9845 28.64H79.996C80.0429 28.6403 80.0894 28.6309 80.1324 28.6123C80.1755 28.5938 80.2143 28.5665 80.2463 28.5323C80.2783 28.498 80.3028 28.4574 80.3183 28.4132C80.3339 28.3689 80.34 28.3219 80.3365 28.2752V20.3336C80.7013 19.0717 81.4295 18.2448 82.4252 18.2448C83.3778 18.2448 83.9114 18.9717 83.9114 20.1877V28.2752C83.9114 28.4941 84.106 28.64 84.3492 28.64H87.1418C87.385 28.64 87.5796 28.4941 87.5796 28.2752V19.5567C87.5796 16.7641 86.2434 14.8942 83.8871 14.8942C82.1875 14.8942 80.9728 15.8696 79.9771 17.3261ZM102.547 15.817C102.837 15.744 102.935 15.5008 102.862 15.186C102.182 12.6109 100.385 10.5707 96.548 10.5707C92.1759 10.5707 89.8926 13.4364 89.8926 17.3707V22.1319C89.8926 26.0662 92.1273 28.9318 96.548 28.9318C100.482 28.9318 102.377 26.7944 102.983 24.1706C103.056 23.8558 102.959 23.637 102.667 23.5397L100.093 22.7142C99.7811 22.5926 99.5838 22.7385 99.5109 23.0303C99.2191 24.3652 98.4881 25.4339 96.5966 25.4339C94.4836 25.4339 93.681 23.9774 93.681 22.0103V17.4923C93.681 15.5251 94.3863 14.0687 96.5966 14.0687C98.3936 14.0687 99.0245 15.0374 99.3893 16.2534C99.4866 16.5452 99.6555 16.6668 99.9716 16.5695L102.547 15.817ZM115.79 28.2752V19.5081C115.79 16.4965 113.896 14.8942 110.523 14.9077C107.317 14.9077 105.496 16.3155 105.131 18.234C105.083 18.4286 105.104 18.5745 105.375 18.6475L108.046 19.323C108.313 19.3919 108.41 19.3433 108.532 19.0528C108.847 18.2989 109.187 17.8138 110.378 17.8138C111.548 17.8138 112.223 18.3232 112.223 19.6351V20.6065C111.413 20.5537 110.6 20.5618 109.791 20.6308C106.051 20.8983 104.522 22.3521 104.522 24.784C104.522 27.2848 106.149 28.9129 108.674 28.9129C109.417 28.9234 110.15 28.7376 110.798 28.3741C111.447 28.0107 111.988 27.4825 112.366 26.843V28.2752C112.364 28.3257 112.373 28.376 112.392 28.4229C112.411 28.4697 112.44 28.5119 112.477 28.5465C112.513 28.5811 112.557 28.6074 112.605 28.6235C112.653 28.6397 112.704 28.6453 112.754 28.64H115.427C115.475 28.6427 115.524 28.6352 115.569 28.6178C115.615 28.6004 115.656 28.5736 115.69 28.5392C115.724 28.5047 115.751 28.4634 115.768 28.4179C115.786 28.3724 115.793 28.3237 115.79 28.2752ZM112.22 22.8331V24.099C111.783 25.3366 110.86 25.9932 109.67 25.9851C108.627 25.9851 107.994 25.4731 107.994 24.5273C107.994 23.4883 108.722 23.0763 110.083 22.906C110.793 22.8319 111.507 22.8075 112.22 22.8331ZM126.189 18.0273V15.4278C126.189 15.0887 126.092 15.0158 125.605 15.0158C123.517 15.0158 122.326 16.1817 121.695 17.3707V15.5738C121.695 15.3792 121.623 15.186 121.331 15.186H118.562C118.515 15.1802 118.468 15.1848 118.423 15.1994C118.377 15.2141 118.336 15.2384 118.301 15.2708C118.267 15.3031 118.24 15.3426 118.222 15.3866C118.204 15.4305 118.196 15.4778 118.199 15.5251V28.2779C118.195 28.3227 118.2 28.3679 118.213 28.4108C118.227 28.4537 118.249 28.4934 118.278 28.5274C118.308 28.5615 118.344 28.5893 118.384 28.6091C118.425 28.6289 118.469 28.6403 118.514 28.6427H121.57C121.615 28.6409 121.66 28.6298 121.701 28.61C121.743 28.5903 121.779 28.5624 121.809 28.528C121.839 28.4936 121.862 28.4534 121.876 28.4099C121.89 28.3665 121.894 28.3206 121.89 28.2752V20.7957C122.279 19.3378 123.419 18.4637 125.362 18.4637H125.751C126.068 18.4637 126.189 18.3421 126.189 18.0273ZM130.961 23.5397V23.0303L138.369 23.0357C138.878 23.0357 139 22.7925 139 22.4277V20.2863C139 17.2991 137.149 14.8955 133.366 14.8955C129.383 14.8955 127.465 17.2991 127.465 20.3593V23.4667C127.465 26.6242 129.505 28.9318 133.39 28.9318C135.964 28.9318 138.029 27.8631 138.854 25.9932C139.024 25.6284 139 25.4339 138.612 25.2393L136.692 24.2679C136.305 24.1058 136.207 24.1463 135.988 24.5111C135.552 25.3123 135.09 25.9446 133.415 25.9446C131.691 25.9446 130.961 24.9488 130.961 23.5397ZM130.961 20.6551V20.1931V20.1877C130.961 18.8771 131.715 17.8625 133.317 17.8625C134.92 17.8625 135.649 18.8825 135.649 20.1931V20.6551H130.961Z" fill="#A1BADC"/>
</svg>
