<svg width="131" height="40" viewBox="0 0 131 40" fill="none" xmlns="http://www.w3.org/2000/svg">
<path fill-rule="evenodd" clip-rule="evenodd" d="M9.99335 18.3194C12.0398 18.3194 13.653 18.0515 15.1698 17.5157L15.2179 17.4914C15.1698 16.3223 15.1698 14.5931 15.1698 13.4971C15.1698 12.4742 15.1698 11.4513 15.2179 10.5988H12.3769C12.4732 11.3051 12.4732 12.0845 12.4732 13.0587C12.4732 13.8137 12.4732 15.3238 12.3769 16.1275C11.7991 16.3223 11.1009 16.4197 10.1137 16.4197C7.34495 16.4197 4.84101 14.2521 4.84101 10.6475C4.84101 7.23781 6.81527 5.02149 10.3304 5.02149C12.5695 5.02149 13.9178 5.84956 14.3271 6.21489L15.1457 3.9255C13.8937 3.36533 12.3769 3 10.4749 3C5.39477 3 2 6.28796 2 11.1347C2 15.4699 5.68368 18.3194 9.99335 18.3194ZM10.1378 21.7049C5.63553 21.7049 2 24.7736 2 29.7908C2 34.053 5.34662 36.9756 9.72851 36.9756C11.7028 36.9756 13.1233 36.6833 14.5438 35.8796L13.7493 33.9799C12.6658 34.6862 11.5583 34.9785 10.1619 34.9785C7.17642 34.9785 4.88916 32.7378 4.88916 29.3281C4.88916 25.7478 7.08011 23.6533 10.1619 23.6533C11.9676 23.6533 13.2196 24.3352 13.6048 24.871L14.4716 22.4842C13.2918 21.9241 12.0398 21.7049 10.1378 21.7049ZM22.4169 21.7294C18.0109 21.7294 14.6403 24.8468 14.6403 29.5961C14.6403 34.0531 17.7943 37.0001 22.4169 37.0001C26.7507 37.0001 30.1695 33.9313 30.1695 29.1577C30.1695 24.6763 27.0396 21.7294 22.4169 21.7294ZM22.4169 35.0517C19.4555 35.0517 17.6016 32.7379 17.6016 29.3526C17.6016 25.9672 19.4074 23.6778 22.4169 23.6778C25.2579 23.6778 27.2322 25.9185 27.2322 29.3526C27.2322 32.7623 25.3061 35.0517 22.4169 35.0517ZM22.4649 3.14613H25.017C26.5338 7.35959 28.9173 13.5215 30.9398 18.1246H27.8339C27.783 17.983 27.7321 17.8396 27.6807 17.6951L27.6807 17.695C27.5378 17.2926 27.3914 16.8805 27.232 16.4684C27.1336 16.2159 27.0305 15.9585 26.9264 15.6985L26.9263 15.6984L26.9263 15.6983C26.6991 15.1312 26.467 14.552 26.2689 13.9842H20.2499L20.2137 14.0798C19.911 14.8812 19.5859 15.7415 19.2386 16.4441C19.171 16.6114 19.0939 16.7929 19.0156 16.9776L19.0155 16.9777L19.0155 16.9777L19.0155 16.9778C18.8429 17.3845 18.6639 17.8064 18.5645 18.1246H15.868C17.6015 14.4713 20.5629 7.57878 22.4649 3.14613ZM21.4576 10.9181C21.304 11.2758 21.1521 11.6294 21.0203 11.9627H25.667C24.8003 9.81947 24.1021 7.77363 23.4761 5.87392C23.1411 6.81079 22.7255 7.82924 22.282 8.91591L22.2812 8.91789C22.1831 9.1583 22.0836 9.40204 21.9834 9.64898C21.8262 10.0595 21.6407 10.4917 21.4576 10.9181L21.4576 10.9181ZM44.8078 36.7561C44.8078 32.8349 44.6875 28.7432 44.4948 25.2361C44.345 25.6757 44.1764 26.1437 43.9893 26.6635L43.9892 26.6636L43.9888 26.6647C43.8754 26.9796 43.7552 27.3135 43.6281 27.6716C43.2198 28.7955 42.7703 30.0557 42.318 31.3239L42.3164 31.3282L42.3153 31.3313L42.3146 31.3332L42.3143 31.3342C41.621 33.278 40.9214 35.2396 40.3537 36.7561H37.8738C36.5978 32.9811 35.0569 28.3536 34.0698 25.2361C33.7086 28.6945 33.3475 32.908 33.203 36.7561H30.6991C31.4214 31.6902 31.7825 26.9653 31.9751 21.9481H35.3458C35.9967 24.2413 36.8778 26.725 37.7355 29.1427L37.7355 29.1428L37.7355 29.1428L37.7355 29.1429L37.922 29.6687C38.023 29.953 38.1224 30.2308 38.2199 30.5033L38.2207 30.5057C38.6575 31.7264 39.0562 32.8408 39.3907 33.9553C40.7485 30.5333 42.3892 25.8 43.6831 22.0673L43.7244 21.9481H46.9506C46.9506 26.2103 47.3118 31.8851 47.7452 36.7561H44.8078ZM45.3134 6.55593C45.506 10.0874 45.6264 14.1791 45.6264 18.1003H48.5396C48.1063 13.2049 47.7451 7.50579 47.7451 3.26798H44.4948C43.2188 6.99433 41.5575 11.7923 40.1851 15.2751C39.9061 14.3971 39.5972 13.509 39.2712 12.5718L39.2711 12.5715L39.2707 12.5704L39.2707 12.5703C39.0904 12.0521 38.905 11.519 38.7165 10.9642C37.8016 8.40693 36.8385 5.7035 36.1403 3.26798H32.7696C32.577 8.30951 32.2159 13.0344 31.4936 18.1003H33.9975C34.0938 14.2522 34.479 10.0387 34.8643 6.55593C35.8514 9.69776 37.3923 14.3253 38.6683 18.1003H41.1482C42.0018 15.8199 43.1737 12.4929 44.1213 9.80249L44.3985 9.01581C44.6183 8.43759 44.8114 7.91352 44.9886 7.43261C45.1025 7.12353 45.2098 6.83227 45.3134 6.55593ZM62.9132 36.7561C62.9132 32.8349 62.7928 28.7432 62.6002 25.2361C62.5276 25.4297 62.4532 25.6288 62.3759 25.8354L62.3753 25.8371L62.3752 25.8374C62.1709 26.384 61.9471 26.983 61.6853 27.6716C61.4513 28.3308 61.202 29.0369 60.9452 29.7639L60.9451 29.7641C60.0918 32.1801 59.1567 34.8279 58.435 36.7561H55.931C54.9118 33.7968 53.7891 30.3137 52.8644 27.4448L52.8643 27.4446L52.8615 27.4359L52.8575 27.4237C52.6051 26.6407 52.3676 25.9038 52.151 25.2361C51.7658 28.6945 51.3806 32.908 51.2361 36.7561H48.7563C49.4785 31.6902 49.8156 26.9653 50.0082 21.9481H53.403C54.1012 24.408 55.0402 27.0871 55.9551 29.6687C56.083 30.0288 56.2083 30.3784 56.3308 30.72L56.3308 30.7201L56.3311 30.7209C56.7387 31.8581 57.1146 32.9067 57.4478 33.9553C58.6658 30.8859 60.0924 26.7614 61.3068 23.2503C61.4607 22.8052 61.6112 22.3701 61.7575 21.9481H64.9837C64.9837 26.2103 65.3449 31.8851 65.7782 36.7561H62.9132ZM60.4094 6.89662C60.4094 8.30923 59.2296 9.67312 57.7128 10.1115C59.7593 10.5743 61.0594 11.8894 61.0354 13.6674C61.0354 16.5413 58.9648 18.1 54.7755 18.1H50.2251C50.3695 15.3479 50.3695 13.6674 50.3695 10.8909C50.3695 7.9439 50.3695 6.19032 50.2251 3.29205H54.7274C58.3147 3.29205 60.4094 4.65594 60.4094 6.89662ZM54.4144 5.14304C53.981 5.14304 53.4032 5.14304 53.0179 5.24046C52.9457 6.48258 52.9457 7.96825 52.9698 9.45392H54.3421C56.6775 9.45392 57.7851 8.67455 57.7851 7.26195C57.7851 5.92241 56.822 5.14304 54.4144 5.14304ZM52.9939 16.1516H54.4625C57.3998 16.1516 58.3629 15.2748 58.3629 13.7404C58.3629 12.1817 57.1109 11.378 54.4144 11.378H52.9457C52.9457 13.0341 52.9457 14.5198 52.9939 16.1516ZM65.1042 14.3493C65.1042 14.6386 65.1101 14.9219 65.116 15.2081C65.1221 15.5002 65.1282 15.7954 65.1282 16.1029C67.3433 16.1029 70.1843 16.1029 71.7011 16.0055L70.9306 18.1H62.3595C62.5039 15.3479 62.5039 13.6674 62.5039 10.8909C62.5039 7.91954 62.5039 6.19032 62.3595 3.29205H65.2005C65.1892 3.75771 65.1832 4.20218 65.1776 4.62053C65.1712 5.09929 65.1652 5.54384 65.1523 5.94677C65.1438 6.45385 65.1293 6.99125 65.1141 7.55471L65.1141 7.55502L65.1141 7.55544L65.1141 7.55595L65.1141 7.55642V7.5566V7.5568C65.0862 8.58948 65.056 9.70963 65.056 10.8909C65.056 12.1605 65.0784 13.1804 65.1017 14.2355L65.1017 14.236L65.1042 14.3493ZM67.5359 29.596C67.5359 32.3481 67.5359 34.1017 67.3915 36.7564H70.2325C70.088 34.1017 70.088 32.3481 70.088 29.596C70.088 26.5759 70.088 24.8467 70.2325 21.9241H67.3915C67.5359 24.871 67.5359 26.5759 67.5359 29.596ZM80.8503 24.7002C80.2002 24.14 79.1649 23.6042 77.6963 23.6042C75.9146 23.6042 75.0238 24.3836 75.0238 25.4309C75.0238 26.3076 75.4331 26.9409 77.3351 27.769C77.7315 27.9378 78.1821 28.1432 78.6086 28.3376L78.609 28.3378L78.6101 28.3383L78.6106 28.3386L78.8038 28.4266C81.0669 29.4738 81.9818 30.5942 81.9818 32.6157C81.9818 35.4896 79.6705 36.9752 76.5887 36.9752C74.783 36.9752 73.1699 36.683 71.7735 36.0254L72.5921 33.8578C73.6996 34.5884 75.1442 35.0999 76.5406 35.0999C78.5389 35.0999 79.2371 34.15 79.2371 33.0053C79.2371 31.9337 78.5148 31.2518 77.0221 30.5698C76.5165 30.3263 75.8183 30.0096 75.3127 29.7904C73.2903 28.8406 72.3031 27.7203 72.3031 25.8205C72.3031 23.4581 74.4459 21.6802 77.7203 21.6802C79.526 21.6802 80.8262 21.9724 81.717 22.4595L80.8503 24.7002ZM72.9771 10.8909C72.9771 13.6674 72.9771 15.3479 72.8327 18.1V18.1244H75.6737C75.6737 17.7676 75.6671 17.4174 75.6608 17.0844V17.0839V17.0834V17.083V17.0826V17.0822V17.0819L75.6608 17.0804C75.6551 16.7784 75.6496 16.4906 75.6496 16.2247L75.6327 15.6082C75.5908 14.0938 75.5533 12.7388 75.5533 10.8909C75.5533 9.50306 75.5805 8.40782 75.607 7.33627V7.33617V7.33606V7.33593V7.33576V7.33557V7.33533C75.6238 6.65834 75.6403 5.99078 75.6496 5.26482C75.6496 4.98637 75.6551 4.68582 75.6608 4.37106V4.37099V4.37091V4.37082V4.37073V4.37062V4.37051C75.6671 4.02468 75.6737 3.6617 75.6737 3.29205H72.8327C72.9771 6.19032 72.9771 7.91954 72.9771 10.8909ZM90.0952 3.29205C89.9989 6.19032 89.9989 7.9439 89.9989 10.8909C89.9989 13.6674 89.9989 15.3479 90.0952 18.1H87.5431C84.8947 13.9596 81.9334 9.50263 79.8387 6.55565V6.55644C79.8387 11.5244 79.8387 14.179 79.9832 18.1H77.407C77.5514 15.3479 77.5515 13.6674 77.5515 10.8909C77.5515 7.91954 77.5514 6.19032 77.407 3.29205H80.3684C83.2094 7.14017 85.9782 11.1831 87.7117 13.8866C87.7117 9.50263 87.7117 6.77485 87.5672 3.29205H90.0952ZM88.4342 23.6042C89.9029 23.6042 90.9141 24.14 91.5882 24.7002L92.479 22.4595C91.5882 21.9724 90.2881 21.6802 88.4824 21.6802C85.208 21.6802 83.0652 23.4581 83.0652 25.8205C83.0652 27.7203 84.0523 28.8406 86.0747 29.7904C86.5803 30.0096 87.2786 30.3263 87.7842 30.5698C89.2769 31.2518 89.9992 31.9337 89.9992 33.0053C89.9992 34.15 89.301 35.0999 87.3026 35.0999C85.858 35.0999 84.4616 34.5884 83.3541 33.8578L82.5355 36.0254C83.9319 36.683 85.4969 36.9752 87.3508 36.9752C90.4085 36.9752 92.7198 35.4896 92.7198 32.6157C92.7198 30.5942 91.7808 29.4738 89.5417 28.4266C89.4164 28.3695 89.2894 28.3108 89.1617 28.2517L89.1615 28.2517C88.7985 28.0838 88.4292 27.9131 88.0731 27.769C86.171 26.9409 85.7377 26.3076 85.7377 25.4309C85.7377 24.3836 86.6526 23.6042 88.4342 23.6042ZM104.662 17.5157C103.145 18.0515 101.508 18.3194 99.4851 18.3194C95.1755 18.3194 91.4677 15.4699 91.4677 11.1347C91.4677 6.28796 94.8866 3 99.9907 3C101.869 3 103.41 3.36533 104.662 3.9255L103.843 6.16618C103.217 5.53294 101.556 4.99713 99.9185 4.99713C96.283 4.99713 94.3328 7.21346 94.3328 10.6232C94.3328 14.2278 96.8127 16.3954 99.6055 16.3954C100.593 16.3954 101.267 16.298 101.821 16.1031C101.917 15.2994 101.917 13.7894 101.917 13.0344C101.917 12.0602 101.917 11.2808 101.821 10.5745H104.686C104.637 11.4269 104.637 12.4498 104.637 13.4728C104.637 14.5687 104.637 16.298 104.686 17.467L104.662 17.5157ZM94.333 29.596C94.333 32.3481 94.333 34.1017 94.1885 36.7564H97.0295C96.8851 34.1017 96.8851 32.3481 96.8851 29.596C96.8851 26.5759 96.8851 24.8467 97.0295 21.9241H94.1885C94.333 24.871 94.333 26.5759 94.333 29.596ZM106.131 21.7294C101.725 21.7294 98.3779 24.8468 98.3779 29.5961C98.3779 34.0531 101.508 37.0001 106.131 37.0001C110.512 37.0001 113.907 33.9313 113.907 29.1577C113.907 24.6763 110.777 21.7294 106.131 21.7294ZM106.131 35.0517C103.241 35.0517 101.315 32.7379 101.315 29.3526C101.315 25.9672 103.169 23.6778 106.131 23.6778C108.996 23.6778 110.994 25.9185 110.994 29.3526C110.97 32.7623 109.044 35.0517 106.131 35.0517ZM127.775 29.596C127.775 26.5759 127.775 24.8467 127.871 21.9241H125.391C125.536 25.4312 125.536 28.2808 125.536 32.5673C123.778 29.8882 121.082 25.8209 118.193 21.9241H115.303C115.352 23.4097 115.448 26.5759 115.448 29.596C115.448 31.3047 115.39 33.272 115.346 34.7468C115.327 35.3951 115.311 35.9482 115.303 36.3424V36.7564H117.783C117.639 32.9328 117.639 30.2051 117.639 25.2372V25.2364C119.545 27.8965 122.15 31.8278 124.672 35.6346C124.921 36.0102 125.169 36.3846 125.416 36.7564H127.871C127.775 34.1017 127.775 32.3481 127.775 29.596Z" fill="#A1BADC"/>
</svg>
