<svg width="107" height="40" viewBox="0 0 107 40" fill="none" xmlns="http://www.w3.org/2000/svg">
<path fill-rule="evenodd" clip-rule="evenodd" d="M2 9.85955C2.08238 9.49983 2.15432 9.13723 2.24862 8.78071C3.08226 5.62789 5.59821 4.77449 8.13407 4.99822C9.07553 5.08126 9.91215 5.44173 10.602 6.28093C10.6206 5.89666 10.6339 5.61049 10.6491 5.30852C10.7227 5.29193 10.7974 5.28055 10.8726 5.27447C12.0951 5.27265 13.3176 5.27308 14.6026 5.27308C14.6123 5.48443 14.6284 5.67176 14.6285 5.85909C14.63 9.27382 14.6287 12.6886 14.6247 16.1034C14.6272 16.6367 14.59 17.1694 14.5136 17.6972C14.2403 19.4807 13.1288 20.5337 11.4614 21.0115C9.26905 21.6435 6.94814 21.6767 4.7387 21.1076C3.0133 20.6734 2.29087 19.7571 2.08387 17.9532C2.06833 17.8154 2.02863 17.6808 2 17.5449V17.2247H6.2173C6.32182 18.2135 6.56202 18.5303 7.48284 18.6511C7.99369 18.718 8.53881 18.6457 9.05073 18.545C9.33592 18.5015 9.59775 18.3616 9.79291 18.1486C9.98807 17.9355 10.1049 17.662 10.1239 17.3733C10.1906 16.7528 10.1873 16.1244 10.221 15.3541C9.56776 16.1132 8.82957 16.3386 8.04712 16.4299C5.2088 16.7615 3.06204 15.5885 2.25745 12.8617C2.1524 12.5067 2.08514 12.1415 2 11.7809V9.85955ZM10.1349 10.8752C10.0806 10.4111 10.0599 10.0557 9.99442 9.70883C9.8219 8.79491 9.2986 8.28682 8.50539 8.2326C7.55499 8.1677 6.87705 8.59712 6.5947 9.49748C6.31189 10.3649 6.29923 11.2982 6.55841 12.1731C6.79425 12.9683 7.33533 13.363 8.16546 13.3813C9.01007 13.4 9.6364 13.0099 9.87735 12.231C10.0225 11.7632 10.0645 11.2632 10.1349 10.8752ZM77.5637 39C77.5352 38.844 77.5163 38.6864 77.5072 38.5281C77.5042 33.479 77.5038 28.4298 77.506 23.3806C77.506 23.2586 77.523 23.1367 77.5353 22.973H81.9993C82.0159 23.2142 82.0312 23.4381 82.0513 23.73C83.0609 22.78 84.2468 22.5651 85.5217 22.6468C87.4029 22.7674 88.7387 23.7142 89.4637 25.4278C90.3643 27.5558 90.4184 29.7575 89.6055 31.9208C88.4545 34.9843 84.7418 36.0153 82.0336 33.9696V39H77.5637ZM81.9666 28.8478C82.0227 29.3404 82.0381 29.8047 82.1343 30.2516C82.3304 31.1626 82.9276 31.6875 83.7177 31.705C84.5266 31.7228 85.2914 31.1969 85.4013 30.3066C85.5179 29.3277 85.5146 28.3381 85.3914 27.3599C85.2885 26.529 84.6218 26.0642 83.8788 26.0486C83.0504 26.0312 82.3752 26.512 82.1648 27.3531C82.0414 27.8455 82.0267 28.3662 81.9666 28.8478ZM55.3203 1V5.92228C55.3784 5.93357 55.4383 5.93262 55.4961 5.91951C58.4474 3.87701 62.1193 5.1958 63.0498 8.68123C63.5686 10.5496 63.4311 12.54 62.6604 14.3188C61.6241 16.7404 59.0878 17.9114 56.6046 17.1062C56.1306 16.9526 55.7028 16.6557 55.2317 16.4132C55.2191 16.5457 55.1998 16.7441 55.1768 16.9896H50.7439V1H55.3203ZM58.8385 11.1993L58.7881 11.1862C58.7625 10.8149 58.7466 10.4425 58.7069 10.0725C58.6824 9.89694 58.6393 9.72451 58.5784 9.55811C58.3215 8.7852 57.7397 8.30006 57.0535 8.27796C56.3554 8.25544 55.6877 8.73396 55.4402 9.51616C55.0975 10.5883 55.102 11.7417 55.453 12.8112C55.5481 13.1382 55.7475 13.425 56.0207 13.6274C56.2939 13.8299 56.6258 13.9368 56.9654 13.932C57.6983 13.9383 58.2767 13.556 58.516 12.8023C58.6799 12.2858 58.7349 11.7348 58.8385 11.1993ZM93.2085 39L91.7653 38.7673V35.4981C92.2095 35.4981 92.6614 35.5033 93.1133 35.4971C93.9793 35.4851 94.1579 35.2424 93.8796 34.4167C92.651 30.7745 91.4188 27.1334 90.1831 23.4935C90.1282 23.3315 90.0767 23.1684 89.9983 22.9295H92.65C93.1995 22.9295 93.75 22.9502 94.2981 22.9225C94.6813 22.903 94.846 23.0112 94.9291 23.4211C95.3686 25.5929 95.8474 27.7567 96.315 29.9228C96.3475 30.0735 96.3986 30.2202 96.4784 30.4992C96.754 29.3101 97.0044 28.2443 97.2475 27.1767C97.5387 25.8978 97.8328 24.6195 98.1051 23.3364C98.1744 23.0099 98.3259 22.9179 98.6464 22.9222C99.9048 22.939 101.163 22.931 102.422 22.9269C102.615 22.9262 102.807 22.8973 103 22.8815V23.095C102.95 23.1857 102.906 23.2792 102.868 23.3751C101.527 27.3105 100.197 31.2499 98.839 35.1796C98.5816 35.9317 98.2603 36.6602 97.8786 37.3571C97.6689 37.7405 97.3781 38.0732 97.0266 38.3318C96.675 38.5904 96.2713 38.7687 95.8437 38.8541C95.5711 38.9149 95.2934 38.9514 95.0179 38.9991H93.2085V39ZM68.7302 1C68.7408 1.14122 68.7616 1.28244 68.7621 1.42366C68.7637 6.47303 68.7637 11.5224 68.7621 16.5717C68.7621 16.6955 68.7515 16.8193 68.7433 16.9888H64.1538V1H68.7302ZM74.7966 1V4.09476H70.1137V1H74.7966ZM49.3403 17.0082H44.7249V16.4153C44.7249 14.6007 44.7246 12.7861 44.724 10.9715C44.724 10.758 44.7222 10.5445 44.7041 10.3319C44.6173 9.31464 44.0833 8.84006 43.0634 8.86579C42.0894 8.89044 41.4877 9.45457 41.4782 10.4221C41.4587 12.4143 41.4686 14.4068 41.4665 16.3996C41.4665 16.5902 41.4665 16.781 41.4665 17.003H36.8201C36.8201 16.8109 36.8201 16.6239 36.8201 16.4373C36.8182 14.4626 36.8242 12.4878 36.8113 10.5131C36.8048 9.51937 36.3142 8.95716 35.4334 8.87881C34.4213 8.78893 33.7519 9.28592 33.5734 10.2786C33.5345 10.5241 33.5173 10.7724 33.5218 11.0209C33.5178 12.9946 33.5196 14.9682 33.5196 16.9885H28.9338V5.29848H33.3536V6.85691C34.3753 5.33211 35.7552 4.9552 37.312 5.02095C38.8644 5.08713 40.2 5.56918 40.9883 7.09932C41.1949 6.83364 41.367 6.57863 41.5721 6.35405C42.7618 5.05063 44.3001 4.88838 45.9252 5.05863C47.5598 5.22942 48.7961 6.28435 49.1953 7.83392C49.278 8.12473 49.3246 8.42466 49.3341 8.72692C49.3447 11.4646 49.3403 14.2025 49.3403 17.0082ZM89.5439 17.2241H93.6414C93.6772 17.3395 93.7042 17.4575 93.7222 17.577C93.7647 18.1342 94.0925 18.5086 94.5993 18.5725C95.2244 18.6536 95.8576 18.6472 96.4809 18.5534C97.1318 18.451 97.5388 17.9877 97.5984 17.303C97.6505 16.7084 97.6608 16.1102 97.6942 15.4172C96.3447 16.6524 94.8168 16.6089 93.2795 16.3421C92.0355 16.126 91.0705 15.4144 90.3818 14.3516C89.0735 12.3322 89.1479 8.85746 90.5703 6.9169C91.8209 5.21053 93.6232 4.84782 95.584 4.99865C96.0695 5.02355 96.544 5.15283 96.9753 5.37771C97.4067 5.60259 97.7847 5.91783 98.084 6.30207V5.3051H102.022C102.047 5.39926 102.063 5.49546 102.071 5.59256C102.064 9.36171 102.081 13.1312 102.035 16.8999C102.009 19.0782 101.006 20.3978 98.9253 21.0073C96.7017 21.662 94.3407 21.6851 92.1048 21.0742C90.2523 20.5808 89.3682 19.2126 89.5439 17.2241ZM97.591 10.771C97.5541 10.4541 97.5257 10.1181 97.474 9.78568C97.3284 8.84636 96.7997 8.29728 95.9956 8.23377C95.0183 8.15649 94.2828 8.57171 94.0769 9.52855C93.9215 10.3053 93.8853 11.1013 93.9695 11.889C94.0653 12.8808 94.7031 13.3706 95.6548 13.382C96.5988 13.3934 97.2683 12.8526 97.4517 11.903C97.5223 11.5385 97.5442 11.1644 97.591 10.771ZM41.4874 34.8181H37.5977V26.2917H33.4114V34.7911H28.8802V18.7206H33.4799V23.9515C33.5418 23.95 33.6026 23.9356 33.6586 23.9093C34.8719 22.2838 37.8189 22.0728 39.5265 22.97C40.9596 23.7233 41.4507 25.0067 41.4741 26.5046C41.5131 29.047 41.4868 31.5903 41.488 34.1333C41.4876 34.3446 41.4874 34.5554 41.4874 34.8181ZM27.8044 17.0112H23.4947C23.4671 16.7551 23.4415 16.5188 23.4084 16.2099C22.1298 17.0877 20.7454 17.3671 19.2868 17.32C17.4526 17.2611 16.094 16.3018 15.6243 14.7644C14.8997 12.3903 16.2054 10.3036 18.7965 9.76679C20.06 9.50495 21.3416 9.33139 22.614 9.11172C22.7973 9.07154 22.9784 9.02216 23.1568 8.96378C23.226 8.21029 22.9955 7.80349 22.3309 7.68939C21.8792 7.61738 21.4184 7.62522 20.9695 7.71255C20.7307 7.7577 20.4011 7.99627 20.3461 8.20847C20.2104 8.73225 19.8672 8.73001 19.4712 8.72905C18.2702 8.72627 17.0693 8.72809 15.862 8.72809C16.0749 6.88082 17.1876 5.77679 18.9208 5.28653C20.8076 4.7539 22.7998 4.72004 24.7035 5.18822C26.6405 5.6518 27.5441 6.80002 27.5893 8.85266C27.6376 11.0567 27.5976 13.2625 27.6212 15.4673C27.6278 15.9685 27.7374 16.4687 27.8044 17.0112ZM23.1428 11.6315C22.3955 11.8449 21.652 12.0541 20.9108 12.2712C20.7407 12.3199 20.5756 12.3845 20.4175 12.4642C19.8887 12.7356 19.6369 13.1774 19.7783 13.617C19.9486 14.1449 20.3823 14.2788 20.873 14.2788C22.2658 14.2771 23.3121 13.0694 23.143 11.6315H23.1428ZM76.3689 34.692H72.0667C72.0498 34.4267 72.0348 34.1837 72.0252 34.0392C71.147 34.3216 70.27 34.7304 69.3532 34.8624C68.4608 34.9873 67.5534 34.9531 66.6728 34.7613C65.1585 34.426 64.1554 33.1009 64.0527 31.5758C63.9356 29.8415 64.7011 28.3842 66.2592 27.8211C67.3605 27.4228 68.5581 27.2909 69.7146 27.049C70.2858 26.9296 70.8595 26.8201 71.435 26.7255C71.8193 26.6623 71.9262 26.4266 71.7583 26.1297C71.6026 25.8542 71.3787 25.4786 71.1268 25.4252C70.5769 25.327 70.0148 25.3187 69.4623 25.4007C69.2555 25.4261 68.9804 25.7023 68.9163 25.918C68.7834 26.3649 68.5141 26.4103 68.1287 26.4051C66.9261 26.3893 65.7235 26.3994 64.4767 26.3994C64.5092 25.8327 64.6755 25.2819 64.9618 24.7923C65.2481 24.3028 65.6464 23.8884 66.1236 23.5834C67.0484 22.9637 68.0956 22.7269 69.1822 22.6278C70.6006 22.4984 72.0147 22.4847 73.4019 22.8762C75.2997 23.4117 76.1715 24.5444 76.1839 26.5119C76.1967 28.54 76.1751 30.5674 76.1994 32.5949C76.2076 33.2893 76.3088 33.9823 76.3689 34.692ZM71.7661 29.2627C70.8496 29.5444 69.9621 29.7803 69.1029 30.0939C68.5059 30.3119 68.2361 30.8013 68.3529 31.2296C68.4878 31.7246 68.9952 32.0102 69.6269 31.947C70.9681 31.8128 71.8952 30.6827 71.7661 29.2627ZM76.1084 5.28557H80.4127V6.78667C81.6716 5.16591 83.264 4.76627 85.0424 5.02885C87.2135 5.34908 88.4328 6.66744 88.496 8.88052C88.572 11.5454 88.5156 14.2142 88.5147 16.8813C88.5039 16.9248 88.4866 16.9664 88.4636 17.0048H83.9422C83.9329 16.7944 83.9177 16.6049 83.9175 16.4152C83.9157 14.4947 83.9336 12.574 83.9028 10.654C83.896 10.2278 83.8186 9.74192 83.5999 9.39341C83.2048 8.76363 82.5068 8.81284 81.8652 8.9087C81.286 8.99526 80.9073 9.36576 80.7709 9.9347C80.7013 10.2465 80.6678 10.5652 80.671 10.8847C80.6621 12.7162 80.6667 14.5477 80.6667 16.3793C80.6667 16.5722 80.6667 16.7652 80.6667 16.9959H76.1082V5.28557H76.1084ZM54.9984 29.6851H47.0675C46.9385 30.605 47.3654 31.4112 48.1131 31.7196C49.194 32.1652 50.0576 31.77 51.0604 30.3523L54.7938 31.9451C54.3889 32.707 53.8001 33.355 53.081 33.8297C50.762 35.4057 48.2444 35.6727 45.7105 34.551C43.2728 33.4719 42.3228 31.3236 42.2715 28.7611C42.2174 26.0606 43.6231 23.8862 45.9107 22.9714C48.5908 21.8998 51.6814 22.4635 53.4505 24.3569C54.4098 25.3838 54.8781 26.6311 54.9914 28.0145C55.0345 28.5408 54.9984 29.0737 54.9984 29.6851ZM47.0703 27.1446H50.2878C50.3517 26.2456 49.7943 25.5362 48.973 25.444C47.9586 25.3301 47.2118 25.9898 47.0703 27.1445V27.1446ZM26.4594 19.5257V23.2022H28.3719V25.7512H26.3642C26.3642 26.6812 26.3675 27.5475 26.363 28.4138C26.36 29.0185 26.3372 29.6232 26.3397 30.2279C26.3434 31.1307 26.6927 31.4851 27.5942 31.4996C27.8399 31.5035 28.0864 31.4604 28.3753 31.4355V34.6093C26.8988 34.8387 25.4047 35.0218 23.9173 34.6802C22.4818 34.3505 21.7036 33.3266 21.697 31.8233C21.6892 30.0271 21.7269 28.2306 21.7444 26.4342C21.7462 26.2397 21.7444 26.0452 21.7444 25.7785H20.203V23.2139H21.7949V19.5257H26.4594ZM60.346 34.7013H55.7985V22.9811H60.1889C60.2024 23.2553 60.2158 23.5291 60.2349 23.9157C61.3354 22.9039 62.5976 22.6274 64.0052 22.6918V26.612C63.5921 26.612 63.1729 26.6 62.7547 26.6141C61.2216 26.6658 60.364 27.5302 60.3494 29.0674C60.334 30.7389 60.3457 32.4107 60.3456 34.0824V34.7015L60.346 34.7013ZM70.1507 5.28599H74.7027V17.0102H70.1507V5.28599Z" fill="#A1BADC"/>
</svg>
