<svg width="99" height="40" viewBox="0 0 99 40" fill="none" xmlns="http://www.w3.org/2000/svg">
<path fill-rule="evenodd" clip-rule="evenodd" d="M17.233 0L33.3068 16.3125L17.1534 32.5455L1 16.3125L17.233 0ZM17.1534 35.4102L32.9089 19.1772H98V39.7867H10.1509V28.169L17.1534 35.4102ZM38.3199 34.6144H41.0254V23.9516H38.3199V34.6144ZM54.3142 34.694C55.2691 34.694 55.8261 34.6144 56.3035 34.4553C57.5767 33.9778 58.3724 32.9434 58.3724 31.5111C58.3724 30.1583 57.6563 29.283 56.1444 28.8056C57.0197 28.3281 57.5767 27.5324 57.5767 26.6571C57.5767 25.5431 56.781 24.5086 55.5874 24.1903C55.0304 23.9516 54.6325 23.9516 53.5185 23.9516H49.4602V34.694H54.3142ZM73.0139 32.5455L73.8893 34.6144H76.7539L71.9795 23.9516H68.9557L64.7383 34.6144H67.5234L68.3191 32.5455H73.0139ZM84.0747 34.3757C85.1091 34.7736 85.9844 34.9327 86.8597 34.9327C89.4061 34.9327 91.0771 33.6596 90.9975 31.8294C90.9975 30.2379 90.1222 29.2034 88.0533 28.4873L87.178 28.169C85.9844 27.7711 85.4274 27.3733 85.4274 26.8958C85.4274 26.4184 86.064 26.0205 87.0189 26.0205C87.9737 26.0205 89.0082 26.3388 90.2814 26.9754L90.5201 26.8958V24.7473C89.1674 24.1903 88.1329 23.9516 86.9393 23.9516C84.5521 23.9516 82.9606 25.1452 82.9606 26.9754C82.9606 27.6915 83.1993 28.4873 83.6768 28.9647C83.9155 29.283 84.2338 29.5217 84.6317 29.7605C85.0245 30.0224 85.4174 30.1765 85.9877 30.4003C86.1104 30.4484 86.2413 30.4998 86.3823 30.5562L86.9393 30.7949C87.9737 31.1928 88.3716 31.4315 88.3716 31.9885C88.3716 32.6251 87.8146 32.9434 86.7802 32.9434C86.1436 32.9434 85.507 32.7842 84.7908 32.5455C84.7674 32.5355 84.7442 32.5256 84.7213 32.5158C84.1997 32.2927 83.8058 32.1242 83.1198 31.5906V33.8983C83.2259 33.9513 83.2966 33.9955 83.3673 34.0397C83.5088 34.1282 83.6503 34.2166 84.0747 34.3757ZM53.4389 32.7047C55.1099 32.7047 55.6669 32.3864 55.6669 31.4315C55.6669 30.397 55.1099 30.0788 53.3593 30.1583H52.1657V32.7047H53.4389ZM53.1206 28.169C54.3938 28.169 54.8712 27.8507 54.8712 26.9754C54.8712 26.1797 54.3938 25.8614 53.1206 25.8614H52.0861V28.169H53.1206ZM72.2978 30.7153L70.6267 26.5775L69.0353 30.7153H72.2978ZM17.146 6.44546C17.3574 6.20402 17.5767 5.96964 17.8035 5.7428L18.2537 6.19293C18.0124 6.4342 17.7801 6.6844 17.5571 6.94289C17.9867 7.48496 18.3793 8.05413 18.7316 8.64751C19.0205 8.28142 19.3311 7.93208 19.6621 7.60116L20.0559 7.99503C19.6866 8.36437 19.3437 8.75782 19.0295 9.17286C19.4553 9.96011 19.8116 10.7866 20.0911 11.6461C20.506 10.8892 21.0163 10.2024 21.5998 9.61884L21.9374 9.95644C21.2779 10.6159 20.7161 11.4172 20.2886 12.3058C20.6315 13.5569 20.8138 14.8721 20.8138 16.2329C20.8138 17.6 20.6368 18.9148 20.3031 20.1567C20.7292 21.0291 21.2868 21.8265 21.9415 22.5139L21.5957 22.8432C21.0227 22.2415 20.5199 21.559 20.1088 20.8168C19.8403 21.6549 19.499 22.4566 19.0915 23.2149C19.3887 23.6001 19.7107 23.9664 20.0559 24.3116L19.6621 24.7054C19.3553 24.3987 19.066 24.0761 18.7952 23.739C18.4402 24.337 18.0426 24.9054 17.6062 25.4408C17.813 25.6713 18.0278 25.8945 18.2502 26.1102L17.807 26.5672C17.5944 26.3609 17.3883 26.1481 17.1892 25.9289C16.968 26.1763 16.738 26.4157 16.4997 26.6468L16.0565 26.1898C16.3034 25.9504 16.5409 25.7016 16.7686 25.444C16.3166 24.8981 15.9054 24.3172 15.5388 23.7051C15.2602 24.0545 14.9618 24.3884 14.6448 24.7054L14.251 24.3116C14.6059 23.9566 14.9364 23.5794 15.2405 23.1822C14.815 22.3975 14.4606 21.5661 14.1846 20.6955C13.7617 21.4847 13.2357 22.2088 12.6315 22.8432L12.2858 22.5139C12.9741 21.7912 13.5552 20.9468 13.9888 20.0216C13.6647 18.7961 13.4929 17.5001 13.4929 16.1533C13.4929 14.8667 13.6624 13.6057 13.9822 12.3975C13.5496 11.4724 12.972 10.6386 12.2899 9.95644L12.6275 9.61884C13.2308 10.2221 13.7557 10.9358 14.178 11.7232C14.4602 10.831 14.8252 9.97157 15.2649 9.1564C14.9541 8.74742 14.6154 8.35948 14.251 7.99503L14.6448 7.60116C14.9708 7.92712 15.277 8.27096 15.5623 8.63107C15.9129 8.04007 16.3038 7.47492 16.7317 6.94036C16.5132 6.68317 16.2857 6.4328 16.0497 6.18961L16.5065 5.74624C16.7269 5.97333 16.9402 6.20649 17.146 6.44546ZM14.3947 13.4402C14.2205 14.3236 14.1295 15.2316 14.1295 16.1533C14.1295 17.1269 14.223 18.0721 14.402 18.9809C14.6884 18.1078 14.8459 17.1822 14.8459 16.2331C14.8459 15.2751 14.6855 14.3292 14.3947 13.4402ZM14.5962 19.8282C15.0607 18.7112 15.3233 17.4929 15.3233 16.2331C15.3233 14.9684 15.0586 13.7242 14.5894 12.5917C14.85 11.5978 15.217 10.6409 15.6786 9.73776C16.1554 10.4546 16.5514 11.2273 16.8571 12.0446C16.4025 13.3274 16.1588 14.7102 16.1588 16.1533C16.1588 17.5964 16.4025 18.9792 16.8571 20.2621C16.5464 21.0926 16.1424 21.8772 15.6552 22.6039C15.2086 21.7331 14.852 20.8043 14.5962 19.8282ZM17.1855 24.9485C16.7286 24.3869 16.3163 23.787 15.9532 23.1533C16.424 22.4869 16.8266 21.7715 17.1534 21.0162C17.4861 21.7849 17.8971 22.5122 18.3787 23.1886C18.0266 23.8088 17.6274 24.3968 17.1855 24.9485ZM18.6747 22.6381C18.1772 21.9018 17.7653 21.1056 17.4498 20.262C17.9044 18.9792 18.1481 17.5964 18.1481 16.1533C18.1481 14.7102 17.9044 13.3274 17.4498 12.0446C17.753 11.2339 18.1451 10.4671 18.6168 9.75513C19.0619 10.6232 19.4196 11.5386 19.6797 12.4925C19.1845 13.6514 18.904 14.9313 18.904 16.2331C18.904 17.5479 19.19 18.8175 19.693 19.9739C19.4431 20.9089 19.1004 21.8001 18.6747 22.6381ZM17.591 16.1533C17.591 15.0409 17.4396 13.9667 17.1534 12.9506C16.8672 13.9667 16.7158 15.0409 16.7158 16.1533C16.7158 17.2657 16.8672 18.3399 17.1534 19.356C17.4396 18.3399 17.591 17.2657 17.591 16.1533ZM18.3185 9.20343C17.8628 9.85554 17.4722 10.554 17.1534 11.2904C16.8319 10.5474 16.4371 9.84307 15.9762 9.18597C16.3222 8.57688 16.7125 7.99514 17.143 7.44625C17.5768 8.00407 17.9699 8.59091 18.3185 9.20343ZM19.8764 13.3097C19.5579 14.2364 19.3814 15.228 19.3814 16.2331C19.3814 17.2464 19.5609 18.233 19.8852 19.1575C20.0769 18.2191 20.1772 17.2413 20.1772 16.2329C20.1772 15.2301 20.0738 14.253 19.8764 13.3097ZM5.13783 16.3126C5.13783 16.7901 5.5357 17.2675 6.09271 17.2675C6.64972 17.2675 7.04759 16.7901 7.04759 16.3126C7.04759 15.8352 6.64972 15.3578 6.09271 15.3578C5.61527 15.3578 5.13783 15.7556 5.13783 16.3126ZM27.1796 16.3126C27.1796 16.7901 27.5775 17.2675 28.1345 17.2675C28.6915 17.2675 29.0894 16.7901 29.0894 16.3126C29.0894 15.8352 28.6915 15.3578 28.1345 15.3578C27.6571 15.3578 27.1796 15.7556 27.1796 16.3126ZM23.5378 11.5566C22.3867 12.7077 21.6493 14.3497 21.6493 16.233C21.6493 18.1199 22.3892 19.6789 23.533 20.9044L23.8239 20.6329C22.7396 19.4712 22.0472 18.0064 22.0472 16.233C22.0472 14.4559 22.7421 12.9149 23.8191 11.838L23.5378 11.5566ZM24.3944 16.1533C24.3944 15.0758 24.8097 14.1603 25.4755 13.4944L25.7006 13.7195C25.0932 14.3269 24.7127 15.1619 24.7127 16.1533C24.7127 17.067 25.0946 17.9811 25.7006 18.5871L25.4755 18.8122C24.8084 18.1451 24.3944 17.1494 24.3944 16.1533ZM12.18 16.233C12.18 14.4559 11.4851 12.9149 10.4081 11.838L10.6894 11.5566C11.8405 12.7077 12.5779 14.3497 12.5779 16.233C12.5779 18.1199 11.838 19.6789 10.6942 20.9044L10.4033 20.6329C11.4876 19.4712 12.18 18.0064 12.18 16.233ZM8.52646 13.7195C9.13381 14.3269 9.5143 15.1619 9.5143 16.1533C9.5143 17.067 9.13249 17.9811 8.52646 18.5871L8.75152 18.8122C9.41866 18.1451 9.83259 17.1494 9.83259 16.1533C9.83259 15.0758 9.41735 14.1603 8.75152 13.4944L8.52646 13.7195ZM45.2428 30.5562C45.9589 30.5562 46.5955 29.9196 46.5955 29.2034C46.5955 28.4873 45.9589 27.8507 45.2428 27.8507C44.5266 27.8507 43.89 28.4873 43.89 29.2034C43.89 29.9196 44.5266 30.5562 45.2428 30.5562ZM63.6243 29.2034C63.6243 29.9196 62.9878 30.5562 62.2716 30.5562C61.3963 30.5562 60.9189 29.9196 60.9189 29.2034C60.9189 28.4873 61.5554 27.8507 62.2716 27.8507C62.9878 27.8507 63.6243 28.4873 63.6243 29.2034ZM79.1411 30.5562C79.8573 30.5562 80.4939 29.9196 80.4939 29.2034C80.4939 28.4873 79.8573 27.8507 79.1411 27.8507C78.4249 27.8507 77.7884 28.4873 77.7884 29.2034C77.7884 29.9196 78.4249 30.5562 79.1411 30.5562Z" fill="#A1BADC"/>
</svg>
