<svg width="63" height="65" viewBox="0 0 63 65" fill="none" xmlns="http://www.w3.org/2000/svg">
<g filter="url(#filter0_d)">
<path d="M28.2322 9.31775C29.7932 7.59519 32.4718 7.556 34.0874 9.23212L35.5077 10.7057C36.4649 11.6988 37.8567 12.1324 39.2004 11.8561L41.1945 11.4463C43.4625 10.9801 45.6549 12.5368 45.9871 14.8491L46.2788 16.8821C46.4758 18.252 47.3505 19.4278 48.5997 20.0014L50.4539 20.8526C52.5625 21.8209 53.4316 24.3788 52.3533 26.4441L51.4051 28.26C50.7664 29.4836 50.79 30.9523 51.4679 32.1567L52.4735 33.9439C53.6175 35.9768 52.8311 38.5589 50.754 39.5883L48.9284 40.4936C47.6979 41.1033 46.8614 42.3039 46.7086 43.6794L46.4819 45.7199C46.2241 48.0406 44.0826 49.661 41.8006 49.261L39.7944 48.9098C38.4424 48.673 37.0651 49.1473 36.1402 50.1677L34.7678 51.6823C33.2067 53.4048 30.5281 53.444 28.9126 51.7678L27.4923 50.2942C26.5351 49.301 25.1433 48.8676 23.7995 49.1436L21.8055 49.5538C19.5373 50.0198 17.3449 48.4633 17.0128 46.1506L16.7209 44.1178C16.5242 42.7478 15.6495 41.5721 14.4001 40.9985L12.5461 40.1473C10.4373 39.179 9.56837 36.6211 10.6467 34.5557L11.5947 32.7399C12.2336 31.5163 12.21 30.0476 11.5322 28.8432L10.5265 27.056C9.38245 25.0231 10.169 22.4409 12.2458 21.4115L14.0716 20.5064C15.302 19.8965 16.1387 18.6958 16.2914 17.3207L16.518 15.2801C16.7758 12.9592 18.9173 11.3391 21.1993 11.7387L23.2056 12.0901C24.5576 12.3269 25.9348 11.8528 26.8597 10.8322L28.2322 9.31775Z" fill="url(#paint0_linear)"/>
</g>
<defs>
<filter id="filter0_d" x="0" y="0" width="63" height="65" filterUnits="userSpaceOnUse" color-interpolation-filters="sRGB">
<feFlood flood-opacity="0" result="BackgroundImageFix"/>
<feColorMatrix in="SourceAlpha" type="matrix" values="0 0 0 0 0 0 0 0 0 0 0 0 0 0 0 0 0 0 127 0"/>
<feOffset dy="2"/>
<feGaussianBlur stdDeviation="5"/>
<feColorMatrix type="matrix" values="0 0 0 0 0.0509804 0 0 0 0 0.0627451 0 0 0 0 0.0823529 0 0 0 0.6 0"/>
<feBlend mode="normal" in2="BackgroundImageFix" result="effect1_dropShadow"/>
<feBlend mode="normal" in="SourceGraphic" in2="effect1_dropShadow" result="shape"/>
</filter>
<linearGradient id="paint0_linear" x1="27.3247" y1="8.67372" x2="35.7499" y2="52.312" gradientUnits="userSpaceOnUse">
<stop stop-color="#FFDE91"/>
<stop offset="1" stop-color="#FF8B49"/>
</linearGradient>
</defs>
</svg>
